# File created by Blade
# Date/Time:  Thu Jan 22 16:31:11 2015
# Frame Rate: 120.000 fps
#------------------------------------------------------
:FULLY-SPECIFIED
:DEGREES
320
root 22.797364 21.890073 0.317471 16.546812 30.229622 -17.648137
RightUpLeg 8.355032 -22.389843 -30.785937
RightLeg -5.369130 -0.000000 0.000000
RightFoot -12.229733 -4.389240 49.897596
RightToeBase 14.315778 -0.000000 -0.000000
LeftUpLeg -104.703669 31.585234 2.344377
LeftLeg 111.462853 -0.000000 -0.000000
LeftFoot -35.804641 1.736718 -18.616448
LeftToeBase 5.483095 -0.000000 -0.000000
Spine 35.525368 -10.730588 -47.290336
RightShoulder -8.488952 -13.790811 -24.817987
RightArm -9.393581 34.372462 39.692543
RightForeArm 33.461278 -0.000000 14.735453
RightHand 12.946649 -0.000000 -34.374288
RightHandThumb1 -24.326973 -0.000000 -32.862282
LeftShoulder -12.370744 27.744577 14.866556
LeftArm 40.005383 -51.132587 -68.285781
LeftForeArm -20.341100 -0.000000 6.318088
LeftHand -26.648904 0.000000 29.702958
LeftHandThumb1 -26.253704 0.000000 33.147579
Head -13.054504 16.191568 -8.940738
321
root 22.848527 21.826541 0.301596 16.502708 30.323901 -17.670725
RightUpLeg 8.438628 -22.341473 -30.894407
RightLeg -5.279681 -0.000000 0.000000
RightFoot -12.359665 -4.468054 49.972079
RightToeBase 14.373685 -0.000000 -0.000000
LeftUpLeg -104.935999 31.515963 2.154559
LeftLeg 111.762091 -0.000000 -0.000000
LeftFoot -35.955813 1.726239 -18.469987
LeftToeBase 5.531564 -0.000000 -0.000000
Spine 35.583051 -10.844503 -47.511778
RightShoulder -8.549390 -13.735320 -24.944271
RightArm -9.812788 34.284192 39.353374
RightForeArm 33.231286 -0.000000 14.735117
RightHand 13.001700 -0.000000 -34.519323
RightHandThumb1 -24.326973 -0.000000 -32.862282
LeftShoulder -12.424768 27.729007 14.838759
LeftArm 40.028954 -51.232264 -68.608414
LeftForeArm -21.301665 -0.000000 6.258152
LeftHand -26.416793 0.000000 29.566071
LeftHandThumb1 -26.253704 0.000000 33.147579
Head -13.030346 15.747753 -9.217474
322
root 22.896314 21.762134 0.287788 16.408425 30.423803 -17.764274
RightUpLeg 8.535828 -22.268462 -30.939115
RightLeg -5.194162 -0.000000 0.000000
RightFoot -12.466894 -4.529887 49.960737
RightToeBase 14.446045 -0.000000 -0.000000
LeftUpLeg -105.162282 31.458838 2.047105
LeftLeg 112.059145 -0.000000 -0.000000
LeftFoot -36.098076 1.715903 -18.346680
LeftToeBase 5.628800 -0.000000 -0.000000
Spine 35.646119 -10.920895 -47.630573
RightShoulder -8.679907 -13.777290 -25.051514
RightArm -10.102853 34.196359 39.068188
RightForeArm 33.119178 -0.000000 14.717293
RightHand 13.175011 0.000000 -34.786823
RightHandThumb1 -24.326973 -0.000000 -32.862282
LeftShoulder -12.456759 27.678866 14.815063
LeftArm 39.995981 -51.313394 -68.907470
LeftForeArm -21.993236 -0.000000 6.312528
LeftHand -26.414286 -0.000000 28.847827
LeftHandThumb1 -26.253704 0.000000 33.147579
Head -12.997817 15.244953 -9.510232
323
root 22.945540 21.696999 0.269732 16.335262 30.556091 -17.817413
RightUpLeg 8.667480 -22.168411 -31.010151
RightLeg -5.139880 -0.000000 0.000000
RightFoot -12.632874 -4.678739 49.909749
RightToeBase 14.564401 -0.000000 -0.000000
LeftUpLeg -105.359912 31.317314 1.946514
LeftLeg 112.352302 -0.000000 -0.000000
LeftFoot -36.262754 1.735489 -18.227936
LeftToeBase 5.716267 -0.000000 -0.000000
Spine 35.714724 -11.020734 -47.754941
RightShoulder -8.767079 -13.814060 -25.222990
RightArm -10.455396 34.148404 38.787309
RightForeArm 32.919314 -0.000000 14.705476
RightHand 13.291137 -0.000000 -34.989157
RightHandThumb1 -24.326973 -0.000000 -32.862282
LeftShoulder -12.476138 27.650815 14.765524
LeftArm 39.871823 -51.279466 -69.047362
LeftForeArm -22.671956 -0.000000 6.432204
LeftHand -26.351510 -0.000000 28.088904
LeftHandThumb1 -26.253704 0.000000 33.147579
Head -12.884043 14.725923 -9.833328
324
root 22.997631 21.636307 0.250568 16.258613 30.677948 -17.824991
RightUpLeg 8.802932 -22.052145 -31.127897
RightLeg -5.052315 -0.000000 0.000000
RightFoot -12.806527 -4.820463 49.865244
RightToeBase 14.646616 -0.000000 -0.000000
LeftUpLeg -105.537374 31.158953 1.801214
LeftLeg 112.623886 -0.000000 -0.000000
LeftFoot -36.369208 1.863116 -18.113885
LeftToeBase 5.546054 -0.000000 -0.000000
Spine 35.811371 -11.064754 -47.943020
RightShoulder -8.844925 -13.775772 -25.374282
RightArm -10.875333 34.045686 38.470880
RightForeArm 32.628186 0.000000 14.705758
RightHand 13.185061 0.000000 -35.225909
RightHandThumb1 -24.326973 -0.000000 -32.862282
LeftShoulder -12.522332 27.666769 14.763463
LeftArm 39.876203 -51.261373 -69.308496
LeftForeArm -23.254231 -0.000000 6.609414
LeftHand -26.333241 -0.000000 26.565854
LeftHandThumb1 -26.253704 0.000000 33.147579
Head -12.756029 14.228500 -10.052617
325
root 23.046789 21.574013 0.232443 16.151560 30.784299 -17.872412
RightUpLeg 8.941472 -21.928577 -31.202493
RightLeg -4.985389 -0.000000 0.000000
RightFoot -12.995214 -4.988957 49.773942
RightToeBase 14.690877 -0.000000 -0.000000
LeftUpLeg -105.691034 31.017632 1.711163
LeftLeg 112.904477 -0.000000 -0.000000
LeftFoot -36.506998 2.009430 -17.959725
LeftToeBase 5.500453 -0.000000 -0.000000
Spine 35.889260 -11.077162 -48.075019
RightShoulder -8.950823 -13.855058 -25.533005
RightArm -11.131688 33.856853 38.230945
RightForeArm 32.360722 0.000000 14.605163
RightHand 13.161313 -0.000000 -35.467834
RightHandThumb1 -24.326973 -0.000000 -32.862282
LeftShoulder -12.592830 27.713101 14.710934
LeftArm 40.017084 -51.255434 -69.662398
LeftForeArm -23.693737 -0.000000 6.854139
LeftHand -26.156079 -0.000000 25.150923
LeftHandThumb1 -26.253704 0.000000 33.147579
Head -12.623190 13.700530 -10.257189
326
root 23.095782 21.513416 0.208349 16.091242 30.880735 -17.894239
RightUpLeg 9.031874 -21.798572 -31.298073
RightLeg -4.902571 -0.000000 0.000000
RightFoot -13.172530 -5.101585 49.757146
RightToeBase 14.619164 -0.000000 -0.000000
LeftUpLeg -105.891274 30.852949 1.573051
LeftLeg 113.188098 -0.000000 -0.000000
LeftFoot -36.609762 2.183786 -17.857099
LeftToeBase 5.413823 -0.000000 -0.000000
Spine 35.936638 -11.136708 -48.237345
RightShoulder -9.003227 -13.903965 -25.709986
RightArm -11.413172 33.713085 37.962784
RightForeArm 32.142116 -0.000000 14.500976
RightHand 13.286563 0.000000 -35.776460
RightHandThumb1 -24.326973 -0.000000 -32.862282
LeftShoulder -12.689715 27.769501 14.592378
LeftArm 40.054431 -51.205363 -69.781057
LeftForeArm -24.573773 -0.000000 7.059790
LeftHand -25.893828 -0.000000 22.933562
LeftHandThumb1 -26.253704 0.000000 33.147579
Head -12.459232 13.182039 -10.509761
